<svg xmlns="http://www.w3.org/2000/svg" xmlns:xlink="http://www.w3.org/1999/xlink" width="117.092" height="117.092" viewBox="0 0 117.092 117.092"><defs><style>.a,.c,.d,.f,.g{fill:none;}.b{clip-path:url(#a);}.c,.d,.f,.g{stroke:#000;stroke-miterlimit:10;}.c,.d{stroke-width:2px;}.d,.g{fill-rule:evenodd;}.e,.h{fill:#fff;}.h{stroke:rgba(0,0,0,0);}</style><clipPath id="a"><rect class="a" width="117.092" height="117.092"/></clipPath></defs><g class="b"><path class="c" d="M598.447,357.96" transform="translate(-574.985 -268.305)"/><path class="c" d="M601.307,353.01" transform="translate(-574.985 -268.305)"/><path class="d" d="M601.307,353.01" transform="translate(-574.985 -268.305)"/><path class="e" d="M594.6,363.813a48.5,48.5,0,0,1,39.064-77.243,49.036,49.036,0,0,1,5.359.295,48.46,48.46,0,0,1,34.426,20.466l-1.64,1.145a46.5,46.5,0,1,0-75.6,54.15Z" transform="translate(-574.985 -268.305)"/><path class="e" d="M646.619,301.584l3.508,1.429a18.372,18.372,0,0,1,8.561,7.089l-8.746-3.564a5.348,5.348,0,0,1-3.323-4.954m-1.454-2.753a7.333,7.333,0,0,0,4.023,9.559l13.581,5.536-.728-1.732a20.508,20.508,0,0,0-11.159-11.033l-5.717-2.33Z" transform="translate(-574.985 -268.305)"/><path class="e" d="M581.487,307.8a14.929,14.929,0,0,1,3.826,6.95l.612,2.535a4.078,4.078,0,0,1-2.868-2.981l-1.57-6.5m-3.231-4.863,2.857,11.836a6.091,6.091,0,0,0,5.913,4.662,6.154,6.154,0,0,0,1.434-.171l-1.2-4.984a17.02,17.02,0,0,0-7.67-10.53l-1.331-.813Z" transform="translate(-574.985 -268.305)"/><path class="e" d="M675.159,308.923a5.362,5.362,0,0,1,4.61,2.64l4.771,8.15a18.362,18.362,0,0,1-8.233-7.466l-1.913-3.268a5.278,5.278,0,0,1,.765-.056m0-2a7.3,7.3,0,0,0-3.7,1.006l3.12,5.329a20.506,20.506,0,0,0,12.506,9.477l1.818.475-7.41-12.657a7.331,7.331,0,0,0-6.336-3.63Z" transform="translate(-574.985 -268.305)"/><path class="e" d="M600.435,353.5A38,38,0,0,1,633,297.08c.208-.01.433-.01.667-.01a37.977,37.977,0,0,1,11.627,1.812l-.611,1.9a35.965,35.965,0,0,0-11.016-1.716c-.214,0-.4,0-.6.009a36,36,0,0,0-30.881,53.444Z" transform="translate(-574.985 -268.305)"/><path class="f" d="M598.447,358.668" transform="translate(-574.985 -268.305)"/><path class="f" d="M601.307,353.718" transform="translate(-574.985 -268.305)"/><path class="e" d="M621.448,344.952l-4.121,1.014a13.631,13.631,0,0,0-8.679,5.79l-.7,1.038,9.566-1.9a5.162,5.162,0,0,0,3.929-5.947Z" transform="translate(-574.985 -268.305)"/><path class="e" d="M624.554,344.952l-5.07,1.247a16.769,16.769,0,0,0-10.677,7.123l-.855,1.277,11.768-2.331a6.35,6.35,0,0,0,4.833-7.316Z" transform="translate(756.416 -152.301) rotate(131)"/><path class="g" d="M601.307,353.718" transform="translate(-574.985 -268.305)"/><path class="e" d="M632.534,335.33c-.1-.122-2.525-3.078-2.525-10.468,0-7.216,2.276-15.918,2.373-16.285l.725-2.745.726,2.745c.1.367,2.374,9.069,2.374,16.285,0,7.39-2.423,10.346-2.526,10.469l-.574.679Z" transform="translate(-572.985 -257.305)"/><path class="e" d="M643.1,329.549c-.243,3.816,1.312,5.65,1.312,5.65s1.745-1.116,1.988-4.932a33.941,33.941,0,0,0-1.107-8.888A28.249,28.249,0,0,0,643.1,329.549Z" transform="translate(-416.54 -472.414) rotate(21)"/><path class="e" d="M643.1,332.145c-.242,5.029,1.309,7.445,1.309,7.445s1.74-1.471,1.982-6.5a58.288,58.288,0,0,0-1.1-11.713A46.72,46.72,0,0,0,643.1,332.145Z" transform="translate(-669.839 -9.712) rotate(-22)"/><path class="e" d="M643.121,333.916c-.4,5.856,2.15,8.67,2.15,8.67s2.858-1.712,3.256-7.568-1.814-13.639-1.814-13.639S643.517,328.059,643.121,333.916Z" transform="translate(56.288 -631.152) rotate(62)"/><path class="e" d="M632.327,355.329c-.2-.128-4.953-3.238-8.825-12.567-3.816-9.2-5.356-21.212-5.371-21.333l-.388-3.089,1.83,2.49c.079.109,8.037,10.982,11.847,20.165,3.908,9.413,2.15,13.78,2.073,13.962l-.371.877Z" transform="translate(-576.09 -268.305)"/><path class="a" d="M618.848,321.064s7.391,9.848,10.949,18.239,1.934,12.146,1.934,12.146-4.374-2.73-7.931-11.121-4.952-19.264-4.952-19.264m-2.211-5.444.723,5.634c.058.453,1.462,11.176,5.058,19.659,3.7,8.727,8.323,11.687,8.519,11.809l1.479.924.692-1.6c.192-.445,1.771-4.6-1.93-13.328-3.588-8.462-10.824-18.146-11.131-18.554l-3.41-4.543Z" transform="translate(-574.985 -268.305)"/><path class="e" d="M636.9,365.383a.5.5,0,0,1-.252-.068l-.724-.419a.5.5,0,0,1-.185-.69l1.211-2.1a.505.505,0,0,1,.691-.185l.724.419a.507.507,0,0,1,.185.691l-1.211,2.1A.508.508,0,0,1,636.9,365.383Z" transform="translate(-579.985 -264.305)"/><path class="h" d="M-5218.719-1007.591a2.351,2.351,0,0,1-1.412-.392l-.1-.083-.139-.052a2.712,2.712,0,0,1-1.317-1.651c-.708-2-.554-6.1,4.2-14.329a72.88,72.88,0,0,1,4.582-6.966l5.526,3.1a.482.482,0,0,0,.245.064.5.5,0,0,0,.437-.256.5.5,0,0,0-.191-.68l-5.41-3.034a78.613,78.613,0,0,1,7.87-8.817,2.664,2.664,0,0,1,1.869-.782,2.836,2.836,0,0,1,2.217,1.092,2.65,2.65,0,0,1,.467,2.321,76.45,76.45,0,0,1-6.648,17.448l-5.946-3.334a.5.5,0,0,0-.244-.065.5.5,0,0,0-.437.256.5.5,0,0,0-.044.381.494.494,0,0,0,.237.3l5.958,3.341c-.243.441-.485.87-.718,1.274C-5213.18-1009-5216.955-1007.591-5218.719-1007.591Zm.354-11.861a.5.5,0,0,0-.435.257.5.5,0,0,0,.192.68l6.392,3.585a.479.479,0,0,0,.244.064.5.5,0,0,0,.438-.254.5.5,0,0,0-.193-.682l-6.393-3.585A.5.5,0,0,0-5218.365-1019.453Z" transform="translate(5278.26 1106.204)"/><path class="a" d="M655.68,329.789h0a2.117,2.117,0,0,1,1.629.8,1.883,1.883,0,0,1,.328,1.677,74.986,74.986,0,0,1-7.762,19.408c-5.468,9.468-9.058,10.49-10.348,10.49a1.812,1.812,0,0,1-.914-.21l-.08-.173-.387-.1a2.143,2.143,0,0,1-.914-1.287c-.5-1.527-.614-5.326,4.172-13.615a75.014,75.014,0,0,1,12.929-16.424,1.9,1.9,0,0,1,1.347-.573m0-1.5a3.4,3.4,0,0,0-2.389.994A77.209,77.209,0,0,0,640.1,346.036c-8.636,14.956-2.473,17.064-2.473,17.064a3,3,0,0,0,1.895.568c2.173,0,6.156-1.732,11.647-11.24a77.245,77.245,0,0,0,7.919-19.8,3.492,3.492,0,0,0-3.413-4.344Z" transform="translate(-574.985 -268.305)"/><line class="h" y1="27.169" x2="0.694" transform="translate(57.428 67.951)"/><rect class="a" width="117.092" height="117.092"/></g></svg>