<svg xmlns="http://www.w3.org/2000/svg" xmlns:xlink="http://www.w3.org/1999/xlink" width="117.092" height="117.092" viewBox="0 0 117.092 117.092"><defs><style>.a{fill:none;}.b{clip-path:url(#a);}.c,.d{fill:#fff;}.d{stroke:rgba(0,0,0,0);}</style><clipPath id="a"><rect class="a" width="117.092" height="117.092"/></clipPath></defs><g class="b"><path class="c" d="M594.208,483.9a48.5,48.5,0,0,1,39.064-77.243,49.048,49.048,0,0,1,5.36.3,48.464,48.464,0,0,1,34.426,20.466l-1.641,1.144a46.5,46.5,0,1,0-75.6,54.151Z" transform="translate(-574.985 -394.748)"/><path class="c" d="M646.225,421.675l3.508,1.43a18.369,18.369,0,0,1,8.56,7.089l-8.745-3.565a5.343,5.343,0,0,1-3.323-4.954m-1.455-2.753a7.333,7.333,0,0,0,4.023,9.559l13.582,5.536-.729-1.732a20.5,20.5,0,0,0-11.158-11.032l-5.718-2.331Z" transform="translate(-574.985 -394.748)"/><path class="c" d="M581.093,427.893a14.925,14.925,0,0,1,3.825,6.949l.612,2.535a4.08,4.08,0,0,1-2.868-2.98l-1.569-6.5m-3.231-4.864,2.856,11.837a6.083,6.083,0,0,0,7.347,4.49l-1.2-4.983a17.027,17.027,0,0,0-7.67-10.531l-1.331-.813Z" transform="translate(-574.985 -394.748)"/><path class="c" d="M674.765,429.015a5.357,5.357,0,0,1,4.609,2.64l4.772,8.149a18.362,18.362,0,0,1-8.234-7.465L674,429.071a5.291,5.291,0,0,1,.766-.056m0-2a7.294,7.294,0,0,0-3.7,1.006l3.119,5.328a20.5,20.5,0,0,0,12.507,9.477l1.817.475-7.41-12.657a7.331,7.331,0,0,0-6.335-3.629Z" transform="translate(-574.985 -394.748)"/><path class="c" d="M600.04,473.588A38,38,0,0,1,632.6,417.171c.208-.009.433-.01.667-.01a37.976,37.976,0,0,1,11.627,1.812l-.611,1.9a36,36,0,0,0-11.016-1.716c-.225,0-.4,0-.6.009a36,36,0,0,0-30.881,53.444Z" transform="translate(-574.985 -394.748)"/><path class="c" d="M615.571,484.123l-3.939,1.983a14.649,14.649,0,0,0-7.322,8.488l-.421,1.275,9.359-4.711a5.239,5.239,0,0,0,2.323-7.035Z" transform="translate(-574.985 -394.748)"/><path class="c" d="M658.9,469.264l3.469-2.256a13.742,13.742,0,0,0,5.949-8.673l.261-1.231-8.239,5.36a4.915,4.915,0,0,0-1.44,6.8Z" transform="translate(-574.985 -394.748)"/><path class="c" d="M606.875,457.264l-1.268-.8,10.836-17.1,9.917,5.336,8.924-11.061,1.168.942-9.707,12.029-9.782-5.265Z" transform="translate(-574.985 -394.748)"/><circle class="c" cx="2.352" cy="2.352" r="2.352" transform="translate(28.904 59.763)"/><path class="c" d="M606.241,459.965a3.1,3.1,0,1,1,3.1-3.1A3.105,3.105,0,0,1,606.241,459.965Zm0-4.7a1.6,1.6,0,1,0,1.6,1.6A1.6,1.6,0,0,0,606.241,455.261Z" transform="translate(-574.985 -394.748)"/><circle class="c" cx="2.352" cy="2.352" r="2.352" transform="translate(39.366 43.253)"/><path class="c" d="M616.7,443.456a3.1,3.1,0,1,1,3.1-3.1A3.105,3.105,0,0,1,616.7,443.456Zm0-4.7a1.6,1.6,0,1,0,1.6,1.6A1.6,1.6,0,0,0,616.7,438.751Z" transform="translate(-574.985 -394.748)"/><circle class="c" cx="2.352" cy="2.352" r="2.352" transform="translate(49.215 48.386)"/><path class="c" d="M626.553,448.588a3.1,3.1,0,1,1,3.1-3.1A3.106,3.106,0,0,1,626.553,448.588Zm0-4.7a1.6,1.6,0,1,0,1.6,1.6A1.6,1.6,0,0,0,626.553,443.884Z" transform="translate(-574.985 -394.748)"/><circle class="c" cx="2.352" cy="2.352" r="2.352" transform="translate(58.531 37.009)"/><path class="c" d="M635.868,437.211a3.1,3.1,0,1,1,3.1-3.1A3.105,3.105,0,0,1,635.868,437.211Zm0-4.7a1.6,1.6,0,1,0,1.6,1.6A1.6,1.6,0,0,0,635.868,432.507Z" transform="translate(-574.985 -394.748)"/><path class="d" d="M-4859.089-818.665h-13.99a7.08,7.08,0,0,1-4.146-1.487c-3.323-2.433-9.3-8.48-12.2-14.305a.7.7,0,0,1,.044-.7.731.731,0,0,1,.615-.345h.016c2.285.05,3.677,1.553,5.149,3.144,1.427,1.545,2.9,3.141,5.249,3.58a3.784,3.784,0,0,0-.074.739,3.757,3.757,0,0,0,3.752,3.752H-4866v-1.5h-8.676a2.255,2.255,0,0,1-2.252-2.252,2.255,2.255,0,0,1,2.252-2.254h7.84a3.058,3.058,0,0,0,1.729-.492,7.8,7.8,0,0,1,4.323-1.114,8.818,8.818,0,0,1,4.824,1.233,20.221,20.221,0,0,1,4.237,4.322l-7.369,7.677Z" transform="translate(4934.008 908.601)"/><path class="c" d="M660.008,476.612m-12.982,11.521,5.933,5.622,12.925-13.642-7.73-3.5Z" transform="translate(-573.985 -394.748)"/><path class="c" d="M644.58,438a1.105,1.105,0,0,0-1.078.857l-1.185,4.934c-3.486.535-6.158,2.777-6.838,5.732-.711,3.1,1.216,4.735,4.619,6.159,2.459,1.068,3.606,2.279,3.157,4.236-.467,2.03-2.557,3.489-5.152,3.489a8.679,8.679,0,0,1-3.831-.864,1.381,1.381,0,1,0-1.137,2.516,10.727,10.727,0,0,0,3.862.77l-.964,3.6a1.122,1.122,0,1,0,2.187.5l1.105-4.2a8.406,8.406,0,0,0,7.167-6.052c.729-3.169-.747-5.02-4.169-6.516-2.886-1.281-4.026-2.207-3.6-4.058.327-1.424,1.763-3.062,4.578-3.062a7.975,7.975,0,0,1,3.288.643,1.39,1.39,0,0,0,.563.12,1.355,1.355,0,0,0,.485-2.62,9.82,9.82,0,0,0-3.019-.528l1.038-4.3A1.1,1.1,0,0,0,644.58,438Z" transform="translate(-574.985 -394.748)"/><path class="c" d="M662.882,443.682a.44.44,0,0,0-.429.341l-.471,1.964a3.155,3.155,0,0,0-2.722,2.281c-.283,1.233.484,1.885,1.838,2.451.979.425,1.435.907,1.257,1.687a1.994,1.994,0,0,1-2.051,1.388,3.447,3.447,0,0,1-1.524-.344.553.553,0,0,0-.245-.057.546.546,0,0,0-.47.266.552.552,0,0,0,.262.792,4.272,4.272,0,0,0,1.537.307l-.384,1.431a.447.447,0,1,0,.871.2l.44-1.674a3.343,3.343,0,0,0,2.852-2.408c.29-1.262-.3-2-1.659-2.594-1.149-.509-1.6-.878-1.433-1.615a1.722,1.722,0,0,1,1.822-1.218,3.182,3.182,0,0,1,1.309.255.54.54,0,1,0,.417-.995,3.94,3.94,0,0,0-1.2-.21l.414-1.71a.44.44,0,0,0-.429-.538Z" transform="translate(-574.985 -394.748)"/><path class="c" d="M612.25,462.027a.591.591,0,0,0-.576.459l-.634,2.639a4.241,4.241,0,0,0-3.658,3.067c-.381,1.657.65,2.533,2.47,3.294,1.316.572,1.929,1.219,1.689,2.267a2.678,2.678,0,0,1-2.756,1.866,4.646,4.646,0,0,1-2.049-.462.734.734,0,0,0-.96.281.74.74,0,0,0,.352,1.064,5.715,5.715,0,0,0,2.066.413l-.516,1.923a.6.6,0,1,0,1.17.269l.591-2.25a4.5,4.5,0,0,0,3.834-3.237c.39-1.7-.4-2.686-2.23-3.486-1.544-.685-2.154-1.181-1.926-2.171a2.315,2.315,0,0,1,2.449-1.637,4.275,4.275,0,0,1,1.759.343.731.731,0,0,0,.3.064.724.724,0,0,0,.259-1.4,5.241,5.241,0,0,0-1.614-.283l.555-2.3a.591.591,0,0,0-.576-.724Z" transform="translate(-572.985 -396.748)"/><path class="c" d="M635.08,489.731a.41.41,0,0,0-.4.32l-.442,1.834a2.95,2.95,0,0,0-2.543,2.131c-.265,1.153.452,1.761,1.718,2.291.914.4,1.341.848,1.174,1.576a1.863,1.863,0,0,1-1.917,1.3,3.238,3.238,0,0,1-1.425-.321.5.5,0,0,0-.228-.054.514.514,0,0,0-.194.99,3.977,3.977,0,0,0,1.436.286l-.359,1.337a.418.418,0,0,0,.814.187l.41-1.564a3.124,3.124,0,0,0,2.666-2.251c.271-1.178-.277-1.866-1.551-2.423-1.074-.476-1.5-.821-1.34-1.509a1.611,1.611,0,0,1,1.7-1.138,2.967,2.967,0,0,1,1.223.239.509.509,0,0,0,.209.045.5.5,0,0,0,.18-.975,3.675,3.675,0,0,0-1.123-.2l.387-1.6a.411.411,0,0,0-.4-.5Z" transform="translate(-580.985 -400.748)"/><rect class="a" width="117.092" height="117.092"/></g></svg>