<svg xmlns="http://www.w3.org/2000/svg" xmlns:xlink="http://www.w3.org/1999/xlink" width="117.092" height="117.092" viewBox="0 0 117.092 117.092"><defs><style>.a{fill:none;}.b{clip-path:url(#a);}.c,.d{fill:#fff;}.d{stroke:rgba(0,0,0,0);}</style><clipPath id="a"><rect class="a" width="117.092" height="117.092"/></clipPath></defs><g class="b"><path class="c" d="M622.008,609.438l-.783-5.066a17.023,17.023,0,0,0-6.767-11.133l-1.258-.921,1.861,12.033a6.088,6.088,0,0,0,6.947,5.087Z" transform="translate(-574.985 -525.579)"/><path class="c" d="M670.678,614.3l2.209-4.625a17.019,17.019,0,0,1,9.686-8.712l1.471-.52-5.249,10.987a6.086,6.086,0,0,1-8.117,2.87Z" transform="translate(-574.985 -525.579)"/><path class="d" d="M-4867.721-793.689h-20.426a2.856,2.856,0,0,1-2.853-2.853v-37.605a2.856,2.856,0,0,1,2.853-2.853h20.426a2.856,2.856,0,0,1,2.853,2.853v37.605A2.856,2.856,0,0,1-4867.721-793.689Zm-12.268-5.483a1,1,0,0,0-1,1,1,1,0,0,0,1,1h5a1,1,0,0,0,1-1,1,1,0,0,0-1-1Zm10.655-21.642h0l-.429.553,2.078,1.607a15.483,15.483,0,0,0-13.85,15.437.5.5,0,0,0,.5.5.5.5,0,0,0,.5-.5,14.507,14.507,0,0,1,3.767-9.769,14.475,14.475,0,0,1,9.309-4.686l-1.877,2.092.522.468,2.807-3.13-.344-.265a.47.47,0,0,0-.264-.205l-2.718-2.1Z" transform="translate(4940.988 882.173)"/><path class="c" d="M651.726,619.673a.75.75,0,0,1-.058-1.5,13.71,13.71,0,0,0,12.572-13.611,13.564,13.564,0,0,0-4-9.654.75.75,0,0,1,1.061-1.06,15.054,15.054,0,0,1,4.437,10.714,15.218,15.218,0,0,1-13.955,15.107Z" transform="translate(-574.985 -525.579)"/><path class="c" d="M654.577,614.083l.814.664-3.276,4.009,4.238,2.975-.6.86-5.16-3.624Z" transform="translate(-574.985 -525.579)"/><path class="c" d="M650.588,625.683a20.916,20.916,0,0,1-13.014-4.484.75.75,0,1,1,.926-1.181,19.427,19.427,0,0,0,12.088,4.165,19.622,19.622,0,0,0,5.959-38.316.75.75,0,0,1,.455-1.429,21.122,21.122,0,0,1-6.414,41.245Z" transform="translate(-574.985 -525.579)"/><path class="c" d="M594.011,619.561a48.5,48.5,0,0,1,39.064-77.244,49.045,49.045,0,0,1,5.361.3,48.457,48.457,0,0,1,34.424,20.466l-1.64,1.145a46.5,46.5,0,1,0-75.6,54.149Z" transform="translate(-574.985 -525.579)"/><path class="c" d="M646.027,557.331l3.509,1.43a18.375,18.375,0,0,1,8.56,7.089l-8.745-3.565a5.347,5.347,0,0,1-3.324-4.954m-1.454-2.753h0a7.332,7.332,0,0,0,4.023,9.559l13.581,5.536-.728-1.731a20.5,20.5,0,0,0-11.158-11.033l-5.718-2.331Z" transform="translate(-574.985 -525.579)"/><path class="c" d="M580.9,563.549a14.934,14.934,0,0,1,3.825,6.949l.612,2.535a4.075,4.075,0,0,1-2.868-2.98l-1.569-6.5m-3.232-4.864,2.857,11.837a6.084,6.084,0,0,0,7.347,4.49l-1.2-4.983a17.025,17.025,0,0,0-7.67-10.531l-1.331-.813Z" transform="translate(-574.985 -525.579)"/><path class="c" d="M674.567,564.671a5.358,5.358,0,0,1,4.61,2.64l4.771,8.15a18.373,18.373,0,0,1-8.233-7.466l-1.913-3.268a5.292,5.292,0,0,1,.765-.056m0-2a7.3,7.3,0,0,0-3.7,1.006l3.12,5.328a20.5,20.5,0,0,0,12.506,9.477l1.818.475L680.9,566.3a7.332,7.332,0,0,0-6.336-3.629Z" transform="translate(-574.985 -525.579)"/><path class="c" d="M599.843,609.244a38,38,0,0,1,32.566-56.417c.207-.01.432-.01.666-.01a37.981,37.981,0,0,1,11.627,1.812l-.611,1.9a36.006,36.006,0,0,0-11.016-1.716c-.216,0-.4,0-.605.009a36,36,0,0,0-30.881,53.444Z" transform="translate(-574.985 -525.579)"/><rect class="a" width="117.092" height="117.092"/></g></svg>