<svg xmlns="http://www.w3.org/2000/svg" xmlns:xlink="http://www.w3.org/1999/xlink" width="117.092" height="117.092" viewBox="0 0 117.092 117.092"><defs><style>.a,.c{fill:none;}.b{clip-path:url(#a);}.c{stroke:#fff;}.c,.d,.f{stroke-width:2px;}.d,.e,.f{fill:#fff;}.d,.f{stroke:#000;stroke-miterlimit:10;}.f{fill-rule:evenodd;}</style><clipPath id="a"><rect class="a" width="117.092" height="117.092"/></clipPath></defs><g class="b"><circle class="c" cx="22.391" cy="22.391" r="22.391" transform="translate(37.735 44.021)"/><path class="d" d="M599.236,222.689" transform="translate(-574.985 -135.775)"/><path class="d" d="M602.1,217.739" transform="translate(-574.985 -135.775)"/><path class="e" d="M654.593,225.27l3.6-1.056a12.465,12.465,0,0,0,7.432-5.981l.548-1-8.557,2.507a4.459,4.459,0,0,0-3.026,5.532Z" transform="translate(-574.985 -135.775)"/><path class="e" d="M624.088,236.344l-2.76-2.445a12.242,12.242,0,0,1-4.1-8.425l-.068-1.12,6.558,5.808a4.379,4.379,0,0,1,.375,6.182Z" transform="translate(-574.985 -135.775)"/><path class="f" d="M602.1,217.739" transform="translate(-574.985 -135.775)"/><path class="e" d="M595.392,228.542A48.5,48.5,0,0,1,634.456,151.3a49.117,49.117,0,0,1,5.359.3,48.46,48.46,0,0,1,34.426,20.466l-1.64,1.145a46.46,46.46,0,0,0-33-19.623,47.141,47.141,0,0,0-5.141-.284A46.5,46.5,0,0,0,597,227.356Z" transform="translate(-574.985 -135.775)"/><path class="e" d="M647.408,166.313l3.509,1.43a18.375,18.375,0,0,1,8.56,7.089l-8.746-3.565a5.348,5.348,0,0,1-3.323-4.954m-1.454-2.752h0a7.333,7.333,0,0,0,4.023,9.559l13.581,5.535-.728-1.731a20.506,20.506,0,0,0-11.159-11.033l-5.717-2.33Z" transform="translate(-574.985 -135.775)"/><path class="e" d="M582.276,172.531a14.931,14.931,0,0,1,3.826,6.949l.612,2.536a4.076,4.076,0,0,1-2.868-2.981l-1.57-6.5m-3.231-4.864L581.9,179.5a6.079,6.079,0,0,0,7.347,4.49l-1.2-4.983a17.02,17.02,0,0,0-7.67-10.53l-1.331-.814Z" transform="translate(-574.985 -135.775)"/><path class="e" d="M675.948,173.653a5.361,5.361,0,0,1,4.61,2.64l4.771,8.15a18.362,18.362,0,0,1-8.233-7.466l-1.913-3.268a5.29,5.29,0,0,1,.765-.056m0-2a7.3,7.3,0,0,0-3.7,1.006l3.12,5.329a20.5,20.5,0,0,0,12.506,9.476l1.818.476-7.41-12.657a7.331,7.331,0,0,0-6.336-3.63Z" transform="translate(-574.985 -135.775)"/><path class="e" d="M601.224,218.226A38,38,0,0,1,633.79,161.81c.205-.01.431-.011.666-.011a37.991,37.991,0,0,1,11.627,1.812l-.611,1.905a35.985,35.985,0,0,0-11.016-1.717c-.207,0-.4,0-.6.01a36,36,0,0,0-30.884,53.443Z" transform="translate(-574.985 -135.775)"/><path class="e" d="M644.7,214.13a9.106,9.106,0,0,1-2.621-.8,13.3,13.3,0,0,0-12.4,0,9.106,9.106,0,0,1-2.621.8c-.308,0-.4-.1-.469-.215a3.237,3.237,0,0,1-.277-1.638,9.567,9.567,0,1,1,19.134,0C645.448,214.13,644.963,214.13,644.7,214.13Z" transform="translate(-574.985 -135.775)"/><path class="e" d="M635.881,203.46a8.827,8.827,0,0,1,8.817,8.817,4.145,4.145,0,0,1-.107,1.1,11.529,11.529,0,0,1-2.232-.745,14.015,14.015,0,0,0-12.956,0,11.336,11.336,0,0,1-2.233.74,4.157,4.157,0,0,1-.106-1.092,8.827,8.827,0,0,1,8.817-8.817m0-1.5a10.317,10.317,0,0,0-10.317,10.317c0,1.96.546,2.6,1.5,2.6,1.809,0,5.083-2.338,8.821-2.338s7.012,2.338,8.822,2.338c.948,0,1.495-.643,1.495-2.6a10.317,10.317,0,0,0-10.317-10.317Z" transform="translate(-574.985 -135.775)"/><path class="e" d="M635.881,199.888a5.6,5.6,0,1,1,5.6-5.6A5.606,5.606,0,0,1,635.881,199.888Z" transform="translate(-574.985 -135.775)"/><path class="e" d="M635.881,189.44a4.849,4.849,0,1,1-4.849,4.849,4.854,4.854,0,0,1,4.849-4.849m0-1.5a6.349,6.349,0,1,0,6.349,6.349,6.349,6.349,0,0,0-6.349-6.349Z" transform="translate(-574.985 -135.775)"/><rect class="a" width="117.092" height="117.092"/></g></svg>